<?xml version="1.0" encoding="UTF-8"?>
<svg width="16px" height="12px" viewBox="0 0 16 12" version="1.1" xmlns="http://www.w3.org/2000/svg" xmlns:xlink="http://www.w3.org/1999/xlink">
    <!-- Generator: Sketch 46.2 (44496) - http://www.bohemiancoding.com/sketch -->
    <title>01</title>
    <desc>Created with Sketch.</desc>
    <defs></defs>
    <g id="Page-1" stroke="none" stroke-width="1" fill="none" fill-rule="evenodd">
        <g id="Home" transform="translate(-105.000000, -718.000000)" fill-rule="nonzero" fill="#394C84">
            <g id="Hero">
                <g id="Logos-+-Ctyptos-+-iphone-matte-copy-Mask">
                    <g id="Ctyptos" transform="translate(77.000000, 133.000000)">
                        <g id="Crypto" transform="translate(22.000000, 577.000000)">
                            <path d="M22,12.8633102 L22,12.8633102 C22,14.9006009 20.7369548,16.6455862 18.9455564,17.3690683 L21.9996844,20 L18.5048149,20 L13.2258065,15.4532931 L17.0993974,15.4532931 C18.5383236,15.4532931 19.7089964,14.2911963 19.7089964,12.8633102 C19.7089964,11.4352154 18.5383236,10.2734317 17.0993974,10.2734317 L15.8653107,10.2734317 L13.2258065,8 L17.0994237,8 C19.8058664,8 22,10.1776234 22,12.8633102 Z M10.9008564,17.7265471 L10.9008564,17.7265732 L12.1347631,17.7265732 L14.7741935,20 L10.9008564,20 C8.19419935,20 6,17.822825 6,15.1368569 C6,13.0995446 7.26307504,11.3543543 9.05444122,10.630926 L6.00031562,8 L9.49514849,8 L14.774062,12.5472712 L10.9008564,12.5472712 C9.46219276,12.5472712 8.29104133,13.7087652 8.29104133,15.1368308 C8.29104133,16.5646094 9.46203495,17.7265471 10.9008564,17.7265471 Z" id="01"></path>
                        </g>
                    </g>
                </g>
            </g>
        </g>
    </g>
</svg>