<?xml version="1.0" encoding="UTF-8"?>
<svg width="25px" height="15px" viewBox="0 0 25 15" version="1.1" xmlns="http://www.w3.org/2000/svg" xmlns:xlink="http://www.w3.org/1999/xlink">
    <!-- Generator: Sketch 46.2 (44496) - http://www.bohemiancoding.com/sketch -->
    <title>02</title>
    <desc>Created with Sketch.</desc>
    <defs></defs>
    <g id="Page-1" stroke="none" stroke-width="1" fill="none" fill-rule="evenodd">
        <g id="Home" transform="translate(-89.000000, -158.000000)" fill-rule="nonzero" fill="#394C84">
            <g id="Hero">
                <g id="Logos-+-Ctyptos-+-iphone-matte-copy-Mask">
                    <g id="Ctyptos" transform="translate(77.000000, 133.000000)">
                        <g id="Group-14" transform="translate(0.000000, 7.000000)">
                            <path d="M22.1851852,23.625 L21.1288511,27.375 L12,27.375 L13.0563341,23.625 L22.1851852,23.625 Z M34.3950448,18 C35.1652223,18 36.1831476,18.3625579 36.6780981,19.3420632 C37.1732667,20.3215686 37.0358713,20.8252444 36.6780981,22.1404597 C36.320652,23.455786 35.1567168,27.4017647 34.6795405,28.8010739 C34.2024732,30.2003831 33.3223794,31.3757008 32.1945378,32.0474535 C31.0666962,32.7192062 30.6451323,33 29.0679205,33 L12.9259259,33 L14.0629272,29.2512758 L29.2440265,29.2512758 L31.5124679,21.7487242 L16.451426,21.7487242 L17.5883183,18 L34.3950448,18 Z" id="02"></path>
                        </g>
                    </g>
                </g>
            </g>
        </g>
    </g>
</svg>