<?xml version="1.0" encoding="UTF-8"?>
<svg width="32px" height="22px" viewBox="0 0 32 22" version="1.1" xmlns="http://www.w3.org/2000/svg" xmlns:xlink="http://www.w3.org/1999/xlink">
    <!-- Generator: Sketch 46.2 (44496) - http://www.bohemiancoding.com/sketch -->
    <title>11</title>
    <desc>Created with Sketch.</desc>
    <defs></defs>
    <g id="Page-1" stroke="none" stroke-width="1" fill="none" fill-rule="evenodd">
        <g id="Home" transform="translate(-1090.000000, -218.000000)" fill-rule="nonzero" fill="#394C84">
            <g id="Hero">
                <g id="Logos-+-Ctyptos-+-iphone-matte-copy-Mask">
                    <g id="Ctyptos" transform="translate(77.000000, 133.000000)">
                        <g id="Group-9" transform="translate(997.000000, 66.000000)">
                            <path d="M30.2998836,26.0149525 L27.0887094,19 L16,40 L24.0612324,38.2754747 C23.507319,37.1412975 23.1967832,35.8708861 23.1967832,34.5288964 C23.1967832,30.3197587 26.2490917,26.8107595 30.2998836,26.0149525 Z M48,40 L48,40 L40.0232796,38.2936116 C40.5822722,37.1547271 40.8957709,35.8778085 40.8957709,34.5288964 C40.8957709,30.3480024 37.8845191,26.8579707 33.8742196,26.0315665 L37.2431308,19 L48,40 Z M32,41 C28.6862915,41 26,38.3137085 26,35 C26,31.6862915 28.6862915,29 32,29 C35.3137085,29 38,31.6862915 38,35 C38,38.3137085 35.3137085,41 32,41 Z" id="11"></path>
                        </g>
                    </g>
                </g>
            </g>
        </g>
    </g>
</svg>