<?xml version="1.0" encoding="UTF-8"?>
<svg width="20px" height="27px" viewBox="0 0 20 27" version="1.1" xmlns="http://www.w3.org/2000/svg" xmlns:xlink="http://www.w3.org/1999/xlink">
    <!-- Generator: Sketch 46.2 (44496) - http://www.bohemiancoding.com/sketch -->
    <title>12</title>
    <desc>Created with Sketch.</desc>
    <defs></defs>
    <g id="Page-1" stroke="none" stroke-width="1" fill="none" fill-rule="evenodd">
        <g id="Home" transform="translate(-713.000000, -545.000000)" fill-rule="nonzero" fill="#394C84">
            <g id="Hero">
                <g id="Logos-+-Ctyptos-+-iphone-matte-copy-Mask">
                    <g id="Ctyptos" transform="translate(77.000000, 133.000000)">
                        <path d="M644.852674,435.845673 C643.234561,435.677952 641.666442,435.330486 640.147358,434.804508 C638.627952,434.279763 637.245714,433.585448 636,432.722794 L638.950678,428.527611 C639.999936,429.242892 641.021312,429.810492 642.016088,430.231027 C643.010544,430.65218 644.021344,430.946308 645.04913,431.114338 L645.04913,427.328899 C643.737397,427.034771 642.584623,426.698404 641.589847,426.320106 C640.595391,425.941193 639.764702,425.483968 639.0981,424.947507 C638.431176,424.411663 637.928661,423.786101 637.589911,423.071128 C637.251162,422.356464 637.081947,421.50491 637.081947,420.516466 C637.081947,419.528022 637.256289,418.676468 637.606256,417.897983 C637.955581,417.120732 638.464186,416.44214 639.131109,415.86375 C639.797391,415.285667 640.617505,414.81796 641.589847,414.460319 C642.56219,414.102987 643.672019,413.882237 644.917732,413.798068 L644.917732,412 L648.327981,412 L648.327981,413.892411 C649.682659,414.040092 650.928693,414.323738 652.065763,414.744273 C653.201551,415.164809 654.262347,415.70127 655.245906,416.353347 L652.557382,420.579053 C651.879563,420.116587 651.163927,419.727807 650.409512,419.412097 C649.655738,419.096695 648.906772,418.855288 648.163894,418.686642 L648.163894,422.345057 C649.475627,422.64011 650.617184,422.981718 651.590168,423.370498 C652.56219,423.760203 653.377175,424.222361 654.032881,424.758821 C654.688588,425.294973 655.180207,425.931018 655.50774,426.666648 C655.836234,427.403202 656,428.255064 656,429.221927 C656,430.252301 655.813479,431.120195 655.442682,431.887272 C655.070602,432.654966 654.546294,433.322459 653.868795,433.890059 C653.190975,434.457659 652.376951,434.90995 651.426401,435.246317 C650.475531,435.582993 649.420504,435.803743 648.262282,435.908569 L648.262282,439 L644.852674,439 L644.852674,435.845673 Z M645.08214,418.402996 C644.272922,418.4662 643.69926,418.639779 643.360831,418.923116 C643.021761,419.207071 642.852546,419.55947 642.852546,419.980005 L642.852546,420.043209 C642.852546,420.464362 643.000288,420.805661 643.295132,421.068342 C643.590616,421.331331 644.185751,421.578596 645.08214,421.809521 L645.08214,418.402996 Z M650.327789,429.694875 L650.327789,429.631672 C650.327789,429.211444 650.174919,428.864286 649.869179,428.590815 C649.562798,428.31796 648.984008,428.065145 648.131526,427.833604 L648.131526,431.303949 C649.595488,431.156884 650.327789,430.620732 650.327789,429.694875 Z" id="12"></path>
                    </g>
                </g>
            </g>
        </g>
    </g>
</svg>