<?xml version="1.0" encoding="UTF-8"?>
<svg width="17px" height="23px" viewBox="0 0 17 23" version="1.1" xmlns="http://www.w3.org/2000/svg" xmlns:xlink="http://www.w3.org/1999/xlink">
    <!-- Generator: Sketch 46.2 (44496) - http://www.bohemiancoding.com/sketch -->
    <title>04</title>
    <desc>Created with Sketch.</desc>
    <defs></defs>
    <g id="Page-1" stroke="none" stroke-width="1" fill="none" fill-rule="evenodd">
        <g id="Home" transform="translate(-1163.000000, -666.000000)" fill-rule="nonzero" fill="#394C84">
            <g id="Hero">
                <g id="Logos-+-Ctyptos-+-iphone-matte-copy-Mask">
                    <g id="Ctyptos" transform="translate(77.000000, 133.000000)">
                        <g id="Group-17" transform="translate(1078.000000, 528.000000)">
                            <path d="M24.9821375,22.9146704 L22.1907972,12.1997868 C22.1722221,12.1288473 22.1398441,12.0622621 22.0955137,12.0038365 L16.9468684,5.22140704 C16.8410694,5.08233379 16.6764853,5.00047783 16.5016994,5.00000209 C16.3269135,4.99952634 16.1618859,5.08048516 16.0553307,5.21898041 L10.8445793,12.0012076 C10.7985459,12.0610448 10.7652269,12.1296516 10.7466659,12.2028201 L8.01712828,22.9175015 C7.95486363,23.1629209 8.06623982,23.4194113 8.28810961,23.5415497 L16.2281964,27.930008 C16.3974001,28.0233307 16.6026749,28.0233307 16.7718786,27.930008 L24.7120666,23.5415497 C24.9347912,23.4188038 25.0459585,23.1607662 24.9821375,22.9146704 L24.9821375,22.9146704 Z M22.9951434,19.7269893 L20.8671459,16.3667141 L21.5770179,14.2842615 L22.9951434,19.7269893 Z M17.0599543,7.2194331 L21.023423,12.4402253 L20.0984046,15.153096 L17.0599543,10.3549417 L17.0599543,7.2194331 L17.0599543,7.2194331 Z M16.5000881,11.5610777 L19.6352379,16.5117052 L17.5948365,22.497189 L15.3858177,22.497189 L15.3858177,22.4968857 L13.3363128,16.5569012 L16.5000881,11.5610777 L16.5000881,11.5610777 Z M15.9402218,7.2035589 L15.9402218,10.3548406 L12.8695047,15.203853 L11.9163666,12.4409331 L15.9402218,7.2035589 Z M11.3701556,14.2898226 L12.1031909,16.4141345 L12.1030898,16.4141345 L9.9716532,19.7799707 L11.3701556,14.2898226 Z M12.5698979,17.7671826 L14.2018549,22.4970879 L9.5745376,22.4970879 L12.5698979,17.7671826 Z M10.7215806,23.6116186 L14.586529,23.6116186 L15.4969818,26.2507804 L10.7215806,23.6116186 Z M16.4969524,25.7177308 L15.7701884,23.6116186 L17.2149164,23.6116186 L16.4969524,25.7177308 Z M17.4964174,26.2545215 L18.3974632,23.6116186 L22.2786967,23.6116186 L17.4964174,26.2545215 Z M18.7774844,22.497189 L20.4039793,17.7256266 L23.4255374,22.497189 L18.7774844,22.497189 Z" id="04"></path>
                        </g>
                    </g>
                </g>
            </g>
        </g>
    </g>
</svg>