<?xml version="1.0" encoding="UTF-8"?>
<svg width="28px" height="34px" viewBox="0 0 28 34" version="1.1" xmlns="http://www.w3.org/2000/svg" xmlns:xlink="http://www.w3.org/1999/xlink">
    <!-- Generator: Sketch 46.2 (44496) - http://www.bohemiancoding.com/sketch -->
    <title>05</title>
    <desc>Created with Sketch.</desc>
    <defs></defs>
    <g id="Page-1" stroke="none" stroke-width="1" fill="none" fill-rule="evenodd">
        <g id="Home" transform="translate(-987.000000, -436.000000)" fill-rule="nonzero" fill="#394C84">
            <g id="Hero">
                <g id="Logos-+-Ctyptos-+-iphone-matte-copy-Mask">
                    <g id="Ctyptos" transform="translate(77.000000, 133.000000)">
                        <g id="Bitcoin" transform="translate(894.000000, 289.000000)">
                            <path d="M41.2074053,31.3357623 C40.1822385,30.5349342 38.7218672,30.2146321 38.7218672,30.2146321 C38.7218672,30.2146321 39.9576848,29.4714847 40.4626848,28.7290655 C40.9682466,27.9863551 41.220887,26.8356563 41.2631576,26.2386039 C41.3051473,25.6412602 41.4035914,23.1366698 39.5219186,21.6950919 C38.0664625,20.5796424 36.39853,20.1368419 34.158751,19.9927861 L34.158751,14.9381599 L31.154029,14.9381599 L31.154029,19.9330663 L28.865379,19.9330663 L28.865379,14.9381599 L25.8609379,14.9381599 L25.8609379,19.9330663 L19.9497975,19.9330663 L19.9497975,23.1694428 L21.6872447,23.1694428 C22.160928,23.1694428 23.0033905,23.2240646 23.3613563,23.6396271 C23.7194625,24.0544612 23.7826578,24.273094 23.7826578,25.0809136 L23.7827982,37.9767505 C23.7827982,38.2824867 23.7266247,38.6609064 23.4737034,38.9086708 C23.2212034,39.1564351 22.9685629,39.2142614 22.364557,39.2142614 L20.5675659,39.2142614 L19.9497975,42.9573823 L25.8609379,42.9573823 L25.8609379,47.9381599 L28.8655195,47.9381599 L28.8655195,42.9573823 L31.1541694,42.9573823 L31.1541694,47.9381599 L34.1588915,47.9381599 L34.1588915,42.8752312 C34.9356309,42.8281836 35.6598481,42.7671529 36.0822731,42.7097636 C36.9389194,42.5935285 38.8763444,42.3604756 40.6879406,41.0496987 C42.4989752,39.7387761 42.905812,37.6852887 42.9480826,35.6175268 C42.9907744,33.5496192 42.2315892,32.136736 41.2074053,31.3357623 Z M30.7608143,23.3844341 C31.7018613,23.3988543 32.5298591,23.4281316 33.7658172,23.8214083 C35.0012135,24.2148308 35.7307672,25.1760283 35.7594157,26.3120156 C35.787362,27.4480028 35.3094658,28.2049878 34.4674246,28.6856594 C33.6251025,29.1661854 32.4603444,29.4283699 31.3646797,29.4716303 C30.2697172,29.5154734 28.865379,29.4716303 28.865379,29.4716303 L28.865379,23.4574088 C28.865379,23.4574088 29.8200481,23.3701596 30.7608143,23.3844341 Z M32.1930988,39.1996956 C30.859118,39.3018019 28.865379,39.2581045 28.865379,39.2581045 L28.865379,32.5734189 C28.865379,32.5734189 30.7749981,32.4717495 32.2634562,32.5734189 C33.7516334,32.6758165 35.0012135,33.0686563 35.5625275,33.3604094 C36.1241223,33.6514342 37.1072995,34.2920384 37.1072995,35.8214481 C37.1072995,37.3502751 36.2783187,37.962039 35.5907547,38.3551701 C34.9027694,38.7485925 33.5266584,39.0980262 32.1930988,39.1996956 Z" id="05" transform="translate(31.449798, 31.438160) rotate(20.000000) translate(-31.449798, -31.438160) "></path>
                        </g>
                    </g>
                </g>
            </g>
        </g>
    </g>
</svg>