<?xml version="1.0" encoding="UTF-8"?>
<svg width="13px" height="14px" viewBox="0 0 13 14" version="1.1" xmlns="http://www.w3.org/2000/svg" xmlns:xlink="http://www.w3.org/1999/xlink">
    <!-- Generator: Sketch 46.2 (44496) - http://www.bohemiancoding.com/sketch -->
    <title>10</title>
    <desc>Created with Sketch.</desc>
    <defs></defs>
    <g id="Page-1" stroke="none" stroke-width="1" fill="none" fill-rule="evenodd">
        <g id="Home" transform="translate(-403.000000, -706.000000)" fill-rule="nonzero" fill="#394C84">
            <g id="Hero">
                <g id="Logos-+-Ctyptos-+-iphone-matte-copy-Mask">
                    <g id="Ctyptos" transform="translate(77.000000, 133.000000)">
                        <g id="Group-21" transform="translate(316.000000, 564.000000)">
                            <path d="M10,23 L10,11.7788003 L12.8678766,11.7788003 L12.8678766,9 L18.4946182,9 C19.7280224,9 20.8955482,9.55993333 21.7820396,10.5765796 C22.5133917,11.4156771 22.967787,12.4781922 22.967787,13.3495152 C22.967787,14.4619737 22.5543587,15.4616429 22.2432521,16.0354048 C22.4707519,16.4153924 22.6519112,16.8197084 22.7830854,17.2402184 C23.1420399,18.392434 23.0541808,19.5152022 22.5292561,20.4869056 C21.9905695,21.484229 21.1888791,22.198252 20.14693,22.6092196 C19.4895477,22.8685052 18.744816,23 17.9334413,23 L10,23 Z M11.496217,21.5501616 L17.9334413,21.5501616 C19.4812014,21.5501616 20.5813834,20.96609 21.2035966,19.8146152 C22.0670242,18.2162433 20.7932264,16.5242198 20.7799106,16.5077367 L20.4091694,16.0645436 L20.7679964,15.6128928 C20.876562,15.4702241 21.4716975,14.4418482 21.4716975,13.3495152 C21.4716975,12.9245338 21.2109872,12.1684077 20.6391704,11.5123535 C20.2930858,11.1155232 19.5544067,10.4498384 18.4947456,10.4498384 L14.3642847,10.4498384 L14.3642847,11.7788621 L18.245185,11.7788621 C19.0378283,11.7788621 19.758222,12.3062612 19.9970153,13.0616465 C20.2096808,13.7131192 20.0330434,14.4251321 19.5380327,14.9117724 C19.3786885,15.0660473 18.7495307,15.5998668 18.245185,16.0244161 C18.7788383,16.5152683 19.5005062,17.1803357 19.6782632,17.3525137 C20.2654984,17.921522 20.1528553,18.9364398 19.8176017,19.3853124 C19.5462516,19.7484974 19.063568,20.2312007 18.0100233,20.2312007 L12.7796989,20.2312007 L12.7796989,13.8931505 L14.2759796,13.8931505 L14.2759796,18.7813623 L18.0098959,18.7813623 C18.3906399,18.7813623 18.4920697,18.6836981 18.583433,18.5642415 C18.6009539,18.5064579 18.604012,18.4032375 18.5902502,18.3490345 C18.3115094,18.0832051 17.1914492,17.0537797 16.6165104,16.5265657 L16.01494,15.9749049 L16.6423139,15.4509011 C17.2670756,14.9291815 18.3182629,14.0432275 18.4799644,13.8865449 C18.4865905,13.8801245 18.6420482,13.7257879 18.5663581,13.4863809 C18.5128399,13.3172279 18.3642631,13.2287004 18.2451213,13.2287004 L11.496217,13.2287004 L11.496217,21.5501616 Z" id="10"></path>
                        </g>
                    </g>
                </g>
            </g>
        </g>
    </g>
</svg>