<?xml version="1.0" encoding="UTF-8"?>
<svg width="23px" height="30px" viewBox="0 0 23 30" version="1.1" xmlns="http://www.w3.org/2000/svg" xmlns:xlink="http://www.w3.org/1999/xlink">
    <!-- Generator: Sketch 46.2 (44496) - http://www.bohemiancoding.com/sketch -->
    <title>07</title>
    <desc>Created with Sketch.</desc>
    <defs></defs>
    <g id="Page-1" stroke="none" stroke-width="1" fill="none" fill-rule="evenodd">
        <g id="Home" transform="translate(-487.000000, -159.000000)" fill-rule="nonzero" fill="#394C84">
            <g id="Hero">
                <g id="Logos-+-Ctyptos-+-iphone-matte-copy-Mask">
                    <g id="Ctyptos" transform="translate(77.000000, 133.000000)">
                        <g id="Group-16" transform="translate(392.000000, 10.000000)">
                            <path d="M33.6094183,41.167364 C31.1883657,41.1046025 28.6398892,39.9748954 27.1745152,37.2133891 L34.7562327,37.2133891 L34.7562327,32.4435146 L25.9639889,32.4435146 C25.900277,32.0041841 25.900277,31.5020921 25.900277,31 C25.900277,30.4351464 25.9639889,29.9330544 25.9639889,29.3682008 L34.7562327,29.3682008 L34.7562327,24.6610879 L27.3019391,24.6610879 C28.767313,22.0251046 31.2520776,20.8953975 33.6731302,20.7698745 C35.4570637,20.832636 37.1772853,21.3974895 38.6426593,22.3389121 L40.8725762,17.9456067 C38.7700831,16.7531381 36.4127424,16.0627615 33.9279778,16 L33.4819945,16 C31.5706371,16.0627615 29.8504155,16.4393305 28.3213296,17.1924686 C26.6648199,18.0083682 25.2631579,19.1380753 24.1163435,20.58159 C23.2243767,21.7740586 22.4598338,23.0920502 21.9501385,24.6610879 L18,24.6610879 L18,29.3682008 L21.0581717,29.3682008 C20.9944598,29.9330544 20.9944598,30.4351464 20.9944598,31 C20.9944598,31.5020921 21.0581717,31.9414226 21.0581717,32.4435146 L18.0637119,32.4435146 L18.0637119,37.2133891 L22.0138504,37.2133891 C22.5235457,38.7824268 23.2880886,40.1631799 24.1800554,41.3556485 C25.3268698,42.8619247 26.7285319,43.9916318 28.3850416,44.7447699 C29.9141274,45.4979079 31.634349,45.9372385 33.5457064,46 C33.6094183,46 33.6731302,46 33.7368421,46 L33.9916898,46 C36.4764543,45.9372385 38.8975069,45.1841004 41,43.9916318 L38.7700831,39.6610879 C37.1135734,40.539749 35.3933518,41.1046025 33.6094183,41.167364 Z" id="07"></path>
                        </g>
                    </g>
                </g>
            </g>
        </g>
    </g>
</svg>