<?xml version="1.0" encoding="UTF-8"?>
<svg width="19px" height="16px" viewBox="0 0 19 16" version="1.1" xmlns="http://www.w3.org/2000/svg" xmlns:xlink="http://www.w3.org/1999/xlink">
    <!-- Generator: Sketch 46.2 (44496) - http://www.bohemiancoding.com/sketch -->
    <title>09</title>
    <desc>Created with Sketch.</desc>
    <defs></defs>
    <g id="Page-1" stroke="none" stroke-width="1" fill="none" fill-rule="evenodd">
        <g id="Home" transform="translate(-1281.000000, -512.000000)" fill-rule="nonzero" fill="#394C84">
            <g id="Hero">
                <g id="Logos-+-Ctyptos-+-iphone-matte-copy-Mask">
                    <g id="Ctyptos" transform="translate(77.000000, 133.000000)">
                        <g id="Group-24" transform="translate(1197.000000, 368.000000)">
                            <path d="M12.1461578,18.1500634 L20.7858408,18.1500634 L16.499665,11.543868 L12.1461578,18.1500634 Z M16.4799848,27 L20.8332408,18.7656271 L12.0847724,18.7656271 L16.4799848,27 Z M16.1449193,11 L12.538589,11 C12.538589,11.009577 12.5396777,11.0188025 12.5388403,11.0284674 L11.9823517,17.3164253 L16.1449193,11 L16.1449193,11 Z M16.8563369,11 L20.9466321,17.3040367 L20.4065577,11.0277645 C20.405804,11.0183632 20.4069764,11.0094013 20.4069764,11.0000879 L16.8563369,11.0000879 L16.8563369,11 Z M21.5295842,18.7301308 L17.255384,26.8206729 L25.8155925,17.767335 L21.5295842,18.7301308 Z M11.3253687,18.0832002 L11.9522871,11 L11.5867382,11 L7,17.0950122 L11.3253687,18.0832002 Z M7.17620042,17.7652263 L15.7126253,26.817422 L11.3945424,18.7289885 L7.17620042,17.7652263 Z M21.6027777,18.0842545 L26,17.0965058 L21.3404032,11 L20.9931946,11 L21.6027777,18.0842545 Z" id="09"></path>
                        </g>
                    </g>
                </g>
            </g>
        </g>
    </g>
</svg>