<?xml version="1.0" encoding="iso-8859-1"?>
<svg xmlns="http://www.w3.org/2000/svg" xmlns:xlink="http://www.w3.org/1999/xlink" version="1.1" id="Layer_1" x="0px" y="0px" viewBox="0 0 512 512" style="enable-background:new 0 0 512 512;" xml:space="preserve" width="512px" height="512px">
	<path d="M469.779,0H110.63c-4.428,0-8.017,3.589-8.017,8.017c0,4.427,3.588,8.017,8.017,8.017h359.148    c14.441,0,26.188,11.748,26.188,26.188v427.557c0,14.44-11.747,26.188-26.188,26.188H323.875V392.818    c0-4.427-3.588-8.017-8.017-8.017c-4.428,0-8.017,3.589-8.017,8.017v103.148h-52.376v-188.66c0-4.427-3.588-8.017-8.017-8.017    H212.71v-52.376h34.739c4.428,0,8.017-3.589,8.017-8.017v-51.307c0-52.161,42.436-94.597,94.597-94.597h60.393v52.376h-60.393    c-23.28,0-42.221,18.941-42.221,42.221v51.307c0,4.427,3.588,8.017,8.017,8.017h94.597v52.376h-94.597    c-4.428,0-8.017,3.589-8.017,8.017v51.307c0,4.427,3.588,8.017,8.017,8.017c4.428,0,8.017-3.589,8.017-8.017v-43.29h94.597    c4.428,0,8.017-3.589,8.017-8.017v-68.409c0-4.427-3.588-8.017-8.017-8.017h-94.597v-43.29c0-14.44,11.747-26.188,26.188-26.188    h68.409c4.428,0,8.017-3.589,8.017-8.017V84.977c0-4.427-3.588-8.017-8.017-8.017h-68.409c-61.002,0-110.63,49.629-110.63,110.63    v43.29h-34.739c-4.428,0-8.017,3.589-8.017,8.017v68.409c0,4.427,3.588,8.017,8.017,8.017h34.739v180.643H42.221    c-14.441,0-26.188-11.748-26.188-26.188V42.221c0-14.44,11.747-26.188,26.188-26.188h34.205c4.428,0,8.017-3.589,8.017-8.017    C84.443,3.589,80.854,0,76.426,0H42.221C18.941,0,0,18.941,0,42.221v427.557C0,493.059,18.941,512,42.221,512h427.557    C493.059,512,512,493.059,512,469.779V42.221C512,18.941,493.059,0,469.779,0z" fill="#FFFFFF"/>
</svg>
