<?xml version="1.0" encoding="UTF-8"?>
<svg width="130px" height="130px" viewBox="0 0 130 130" version="1.1" xmlns="http://www.w3.org/2000/svg" xmlns:xlink="http://www.w3.org/1999/xlink">
    <!-- Generator: Sketch 46.2 (44496) - http://www.bohemiancoding.com/sketch -->
    <title>Group 11</title>
    <desc>Created with Sketch.</desc>
    <defs>
        <linearGradient x1="-72.9775117%" y1="0%" x2="89.9410683%" y2="55.7016385%" id="linearGradient-1">
            <stop stop-color="#2B5876" offset="0%"></stop>
            <stop stop-color="#4E4376" offset="100%"></stop>
        </linearGradient>
        <linearGradient x1="-62.2844828%" y1="-36.2100291%" x2="101.999998%" y2="100.999999%" id="linearGradient-2">
            <stop stop-color="#6D0096" offset="0%"></stop>
            <stop stop-color="#E9649B" offset="100%"></stop>
        </linearGradient>
        <circle id="path-3" cx="48" cy="48" r="48"></circle>
        <filter x="-28.2%" y="-26.1%" width="156.5%" height="156.5%" filterUnits="objectBoundingBox" id="filter-4">
            <feMorphology radius="3.5999999" operator="dilate" in="SourceAlpha" result="shadowSpreadOuter1"></feMorphology>
            <feOffset dx="0" dy="2" in="shadowSpreadOuter1" result="shadowOffsetOuter1"></feOffset>
            <feGaussianBlur stdDeviation="7.5" in="shadowOffsetOuter1" result="shadowBlurOuter1"></feGaussianBlur>
            <feComposite in="shadowBlurOuter1" in2="SourceAlpha" operator="out" result="shadowBlurOuter1"></feComposite>
            <feColorMatrix values="0 0 0 0 0   0 0 0 0 0   0 0 0 0 0  0 0 0 0.1 0" type="matrix" in="shadowBlurOuter1"></feColorMatrix>
        </filter>
        <circle id="path-5" cx="44.5" cy="44.5" r="44.5"></circle>
    </defs>
    <g id="Page-1" stroke="none" stroke-width="1" fill="none" fill-rule="evenodd">
        <g id="Home" transform="translate(-652.000000, -1068.000000)">
            <g id="Vision" transform="translate(137.000000, 928.000000)">
                <g id="Group-6" transform="translate(400.000000, 105.000000)">
                    <g id="Group-11" transform="translate(132.000000, 50.000000)">
                        <g id="Oval-5">
                            <use fill="black" fill-opacity="1" filter="url(#filter-4)" xlink:href="#path-3"></use>
                            <use fill="url(#linearGradient-1)" fill-rule="evenodd" xlink:href="#path-3"></use>
                            <use stroke="#FFFFFF" stroke-width="7.19999981" fill-opacity="0.100000001" fill="url(#linearGradient-2)" fill-rule="evenodd" xlink:href="#path-3"></use>
                        </g>
                        <g id="icons8-money_transfer" transform="translate(4.000000, 4.000000)">
                            <mask id="mask-6" fill="white">
                                <use xlink:href="#path-5"></use>
                            </mask>
                            <g id="Mask">
                                <use fill="url(#linearGradient-1)" xlink:href="#path-5"></use>
                                <use fill-opacity="0.400000006" fill="url(#linearGradient-2)" xlink:href="#path-5"></use>
                            </g>
                            <g id="icons8-artificial_intelligence" mask="url(#mask-6)" fill-rule="nonzero" fill="#FFFFFF">
                                <g transform="translate(24.000000, 22.000000)" id="Shape">
                                    <path d="M17.361328,0 C11.910037,0 8.406777,2.5176078 7.3125,5.2207031 C3.0190251,6.1336471 0,10.830736 0,15.998047 C0,18.125094 0.6170839,20.254614 1.6855469,22.619141 C0.812798,23.686864 0,25.025818 0,27 C0,29.587442 1.6942188,32.080318 4.7128906,33.46875 C3.7648385,35.674615 3.9680895,37.802405 5.0976562,39.316406 C6.270907,40.888959 8.242428,41.70724 10.359375,41.869141 C11.001123,43.554728 12.156995,44.72575 13.4375,45.283203 C14.89587,45.918088 16.387983,46 17.361328,46 C18.849439,46 20.154149,45.29862 21.001953,44.210938 C21.84923,45.292273 23.150052,45.98929 24.630859,46 L24.632812,46 C25.552976,46.0066 27.039086,45.92271 28.509766,45.289062 C29.778905,44.742249 30.932787,43.591033 31.59375,41.949219 C33.192396,41.897599 34.846287,41.660818 36.248047,40.871094 C37.822976,39.983783 39,38.304167 39,36 C39,35.099066 38.67523,34.267515 38.291016,33.431641 C39.575156,32.793253 40.586978,31.976036 41.140625,30.966797 C41.838517,29.694613 42,28.300027 42,27 C42,25.006703 41.058604,23.807683 40.144531,22.828125 C41.228964,20.463917 42.03534,18.178728 42,15.982422 C41.90703,10.148042 37.975141,6.0523602 33.710938,5.2050781 C32.760699,2.7071935 30.058614,0 24.638672,0 C23.274588,0 21.949224,0.3504312 21.113281,1.4277344 C21.072057,1.4808609 21.038541,1.5404279 21,1.5957031 C20.961459,1.5404279 20.927943,1.4808609 20.886719,1.4277344 C20.050776,0.3504312 18.725412,0 17.361328,0 Z M17.361328,2 C18.440244,2 18.933834,2.171897 19.306641,2.6523438 C19.679448,3.1327904 20,4.2113199 20,6.1855469 L20,11.832031 C19.982151,11.9400224 19.982151,12.0502116 20,12.158203 L20,16 L17,16 L17,11 L12.8125,11 C12.395141,9.84267 11.293159,9 10,9 C8.35499,9 7,10.35499 7,12 C7,13.64501 8.35499,15 10,15 C11.293159,15 12.395141,14.15733 12.8125,13 L15,13 L15,18 L20,18 L20,26 L13,26 L13,32.1875 C11.84267,32.604859 11,33.706841 11,35 C11,36.64501 12.35499,38 14,38 C15.64501,38 17,36.64501 17,35 C17,33.706841 16.15733,32.604859 15,32.1875 L15,28 L20,28 L20,34.832031 C19.982151,34.9400224 19.982151,35.0502116 20,35.158203 L20,41.332031 C20,42.968513 18.94031,44 17.361328,44 C16.518673,44 15.279458,43.90333 14.236328,43.449219 C13.193198,42.995104 12.34717,42.284037 11.970703,40.759766 L11.783203,40 L11,40 C9.166111,40 7.533635,39.236876 6.701172,38.121094 C5.8687081,37.005311 5.6483493,35.54697 6.859375,33.511719 L7.492188,32.447266 L6.318359,32.052734 C3.2666238,31.02704 2,28.97598 2,27 C2,25.280333 2.6382905,24.412961 3.5410156,23.425781 L3.9296875,23 L7.1875,23 C7.604859,24.15733 8.706841,25 10,25 C11.64501,25 13,23.64501 13,22 C13,20.35499 11.64501,19 10,19 C8.706841,19 7.604859,19.84267 7.1875,21 L3.1328125,21 C2.3748298,19.153485 2,17.561273 2,15.998047 C2,11.408195 4.8754552,7.390876 8.121094,6.9921875 L8.78125,6.9121094 L8.960938,6.2734375 C9.408632,4.6991014 12.239179,2 17.361328,2 Z M24.638672,2 C29.760821,2 31.514782,4.432686 32.039062,6.2734375 L32.220703,6.9121094 L32.878906,6.9921875 C36.250669,7.406369 39.917363,10.82972 40,16.015625 C40.02961,17.85582 39.276815,20.099648 38.097656,22.568359 L37.794922,23.203125 L38.287109,23.701172 C39.329556,24.758712 40,25.321333 40,27 C40,28.126973 39.846327,29.16609 39.386719,30.003906 C39.093896,30.537692 38.651473,31.008772 38,31.416016 L38,27 L29,27 L29,23.8125 C30.15733,23.395141 31,22.293159 31,21 C31,19.35499 29.64501,18 28,18 C26.35499,18 25,19.35499 25,21 C25,22.293159 25.84267,23.395141 27,23.8125 L27,29 L36,29 L36,32.857422 C35.9654619,33.085757 36.011008,33.3190086 36.128906,33.517578 C36.1295561,33.5182299 36.1302071,33.5188809 36.130859,33.519531 C36.649099,34.577424 37,35.47455 37,36 C37,37.695833 36.353149,38.516217 35.265625,39.128906 C34.178101,39.741596 32.575498,40 31,40 L30.216797,40 L30.029297,40.759766 C29.655498,42.273237 28.78257,42.994774 27.71875,43.453125 C26.65493,43.911476 25.41032,44.005443 24.646484,44 C23.059004,43.988519 22,42.968513 22,41.332031 L22,36 L26.1875,36 C26.604859,37.15733 27.706841,38 29,38 C30.64501,38 32,36.64501 32,35 C32,33.35499 30.64501,32 29,32 C27.706841,32 26.604859,32.84267 26.1875,34 L22,34 L22,27.167969 C22.017849,27.0599776 22.017849,26.9497884 22,26.841797 L22,17.167969 C22.017849,17.0599776 22.017849,16.9497884 22,16.841797 L22,13 L30.1875,13 C30.604859,14.15733 31.706841,15 33,15 C34.64501,15 36,13.64501 36,12 C36,10.35499 34.64501,9 33,9 C31.706841,9 30.604859,9.84267 30.1875,11 L22,11 L22,6.1855469 C22,4.2113199 22.320552,3.1327905 22.693359,2.6523438 C23.066166,2.171897 23.559756,2 24.638672,2 Z M10,11 C10.54383,11 10.958426,11.408812 10.988281,11.943359 C10.9860662,11.9817387 10.9860662,12.0202143 10.988281,12.058594 C10.957487,12.592159 10.543157,13 10,13 C9.435871,13 9,12.564129 9,12 C9,11.435871 9.435871,11 10,11 Z M33,11 C33.564129,11 34,11.435871 34,12 C34,12.564129 33.564129,13 33,13 C32.45617,13 32.041574,12.591188 32.011719,12.056641 C32.0139338,12.0182613 32.0139338,11.9797857 32.011719,11.941406 C32.042513,11.407841 32.456843,11 33,11 Z M28,20 C28.564129,20 29,20.435871 29,21 C29,21.54383 28.591188,21.958426 28.056641,21.988281 C28.0325837,21.9867593 28.0084793,21.9861079 27.984375,21.986328 C27.9700397,21.9866709 27.9557133,21.987322 27.941406,21.988281 C27.407841,21.957487 27,21.543157 27,21 C27,20.435871 27.435871,20 28,20 Z M10,21 C10.564129,21 11,21.435871 11,22 C11,22.564129 10.564129,23 10,23 C9.45617,23 9.041574,22.591188 9.011719,22.056641 C9.0139338,22.0182613 9.0139338,21.9797857 9.011719,21.941406 C9.042513,21.407841 9.456843,21 10,21 Z M29,34 C29.564129,34 30,34.435871 30,35 C30,35.564129 29.564129,36 29,36 C28.45617,36 28.041574,35.591188 28.011719,35.056641 C28.0139338,35.0182613 28.0139338,34.9797857 28.011719,34.941406 C28.042513,34.407841 28.456843,34 29,34 Z M13.943359,34.011719 C13.9817387,34.0139338 14.0202143,34.0139338 14.058594,34.011719 C14.592159,34.042513 15,34.456843 15,35 C15,35.564129 14.564129,36 14,36 C13.435871,36 13,35.564129 13,35 C13,34.45617 13.408812,34.041574 13.943359,34.011719 Z"></path>
                                </g>
                            </g>
                        </g>
                    </g>
                </g>
            </g>
        </g>
    </g>
</svg>