<?xml version="1.0" encoding="UTF-8"?>
<svg width="130px" height="130px" viewBox="0 0 130 130" version="1.1" xmlns="http://www.w3.org/2000/svg" xmlns:xlink="http://www.w3.org/1999/xlink">
    <!-- Generator: Sketch 46.2 (44496) - http://www.bohemiancoding.com/sketch -->
    <title>Group 18</title>
    <desc>Created with Sketch.</desc>
    <defs>
        <linearGradient x1="0%" y1="0%" x2="101.999998%" y2="100.999999%" id="linearGradient-1">
            <stop stop-color="#EF14C5" offset="0%"></stop>
            <stop stop-color="#FFC160" offset="100%"></stop>
        </linearGradient>
        <linearGradient x1="-62.2844828%" y1="-36.2100291%" x2="101.999998%" y2="100.999999%" id="linearGradient-2">
            <stop stop-color="#6D0096" offset="0%"></stop>
            <stop stop-color="#E9649B" offset="100%"></stop>
        </linearGradient>
        <circle id="path-3" cx="48" cy="48" r="48"></circle>
        <filter x="-28.2%" y="-26.1%" width="156.5%" height="156.5%" filterUnits="objectBoundingBox" id="filter-4">
            <feMorphology radius="3.5999999" operator="dilate" in="SourceAlpha" result="shadowSpreadOuter1"></feMorphology>
            <feOffset dx="0" dy="2" in="shadowSpreadOuter1" result="shadowOffsetOuter1"></feOffset>
            <feGaussianBlur stdDeviation="7.5" in="shadowOffsetOuter1" result="shadowBlurOuter1"></feGaussianBlur>
            <feComposite in="shadowBlurOuter1" in2="SourceAlpha" operator="out" result="shadowBlurOuter1"></feComposite>
            <feColorMatrix values="0 0 0 0 0   0 0 0 0 0   0 0 0 0 0  0 0 0 0.1 0" type="matrix" in="shadowBlurOuter1"></feColorMatrix>
        </filter>
    </defs>
    <g id="Page-1" stroke="none" stroke-width="1" fill="none" fill-rule="evenodd">
        <g id="Home" transform="translate(-1051.000000, -1068.000000)">
            <g id="Vision" transform="translate(137.000000, 928.000000)">
                <g id="Group-6-Copy" transform="translate(800.000000, 105.000000)">
                    <g id="Group-18" transform="translate(131.000000, 50.000000)">
                        <g id="Oval-5">
                            <use fill="black" fill-opacity="1" filter="url(#filter-4)" xlink:href="#path-3"></use>
                            <use fill="url(#linearGradient-1)" fill-rule="evenodd" xlink:href="#path-3"></use>
                            <use stroke="#FFFFFF" stroke-width="7.19999981" fill-opacity="0.599999964" fill="url(#linearGradient-2)" fill-rule="evenodd" xlink:href="#path-3"></use>
                        </g>
                        <g id="icons8-collect" transform="translate(14.000000, 14.000000)" fill-rule="nonzero" fill="#FFFFFF">
                            <path d="M34,0 C33.449219,0 33,0.449219 33,1 C33,1.550781 33.449219,2 34,2 C34.550781,2 35,1.550781 35,1 C35,0.449219 34.550781,0 34,0 Z M34,4 C33.449219,4 33,4.449219 33,5 C33,5.550781 33.449219,6 34,6 C34.550781,6 35,5.550781 35,5 C35,4.449219 34.550781,4 34,4 Z M34,8 C33.449219,8 33,8.449219 33,9 C33,9.550781 33.449219,10 34,10 C34.550781,10 35,9.550781 35,9 C35,8.449219 34.550781,8 34,8 Z M33,12 L33,24.585938 L27.207031,18.792969 L25.792969,20.207031 L34,28.414063 L42.207031,20.207031 L40.792969,18.792969 L35,24.585938 L35,12 L33,12 Z M20.207031,25.792969 L18.792969,27.207031 L24.585938,33 L12,33 L12,35 L24.585938,35 L18.792969,40.792969 L20.207031,42.207031 L28.414063,34 L20.207031,25.792969 Z M47.792969,25.792969 L39.585938,34 L47.792969,42.207031 L49.207031,40.792969 L43.414063,35 L56,35 L56,33 L43.414063,33 L49.207031,27.207031 L47.792969,25.792969 Z M34,32 C32.894531,32 32,32.894531 32,34 C32,35.105469 32.894531,36 34,36 C35.105469,36 36,35.105469 36,34 C36,32.894531 35.105469,32 34,32 Z M1,33 C0.449219,33 0,33.449219 0,34 C0,34.550781 0.449219,35 1,35 C1.550781,35 2,34.550781 2,34 C2,33.449219 1.550781,33 1,33 Z M5,33 C4.449219,33 4,33.449219 4,34 C4,34.550781 4.449219,35 5,35 C5.550781,35 6,34.550781 6,34 C6,33.449219 5.550781,33 5,33 Z M9,33 C8.449219,33 8,33.449219 8,34 C8,34.550781 8.449219,35 9,35 C9.550781,35 10,34.550781 10,34 C10,33.449219 9.550781,33 9,33 Z M59,33 C58.449219,33 58,33.449219 58,34 C58,34.550781 58.449219,35 59,35 C59.550781,35 60,34.550781 60,34 C60,33.449219 59.550781,33 59,33 Z M63,33 C62.449219,33 62,33.449219 62,34 C62,34.550781 62.449219,35 63,35 C63.550781,35 64,34.550781 64,34 C64,33.449219 63.550781,33 63,33 Z M67,33 C66.449219,33 66,33.449219 66,34 C66,34.550781 66.449219,35 67,35 C67.550781,35 68,34.550781 68,34 C68,33.449219 67.550781,33 67,33 Z M34,39.585938 L25.792969,47.792969 L27.207031,49.207031 L33,43.414063 L33,56 L35,56 L35,43.414063 L40.792969,49.207031 L42.207031,47.792969 L34,39.585938 Z M34,58 C33.449219,58 33,58.449219 33,59 C33,59.550781 33.449219,60 34,60 C34.550781,60 35,59.550781 35,59 C35,58.449219 34.550781,58 34,58 Z M34,62 C33.449219,62 33,62.449219 33,63 C33,63.550781 33.449219,64 34,64 C34.550781,64 35,63.550781 35,63 C35,62.449219 34.550781,62 34,62 Z M34,66 C33.449219,66 33,66.449219 33,67 C33,67.550781 33.449219,68 34,68 C34.550781,68 35,67.550781 35,67 C35,66.449219 34.550781,66 34,66 Z" id="Shape"></path>
                        </g>
                    </g>
                </g>
            </g>
        </g>
    </g>
</svg>