<?xml version="1.0" encoding="UTF-8"?>
<svg width="39px" height="42px" viewBox="0 0 39 42" version="1.1" xmlns="http://www.w3.org/2000/svg" xmlns:xlink="http://www.w3.org/1999/xlink">
    <!-- Generator: Sketch 46.2 (44496) - http://www.bohemiancoding.com/sketch -->
    <title>logo</title>
    <desc>Created with Sketch.</desc>
    <defs></defs>
    <g id="Page-1" stroke="none" stroke-width="1" fill="none" fill-rule="evenodd">
        <g id="Home" transform="translate(-145.000000, -38.000000)">
            <g id="Hero">
                <g id="logo" transform="translate(145.000000, 38.000000)">
                    <path d="M35.0147442,8.51176835 L33.4329767,7.53126475 L30.5270233,6.74051655 L27.2286512,6.44077554 L25.205186,6.58762446 L22.5199302,6.9798259 L19.8222791,8.20537986 L17.9953256,9.3940705 L16.1562791,10.7667755 L14.9176512,12.1760417 L13.9734884,13.5239698 L13.2745116,14.7374374 L12.3672326,16.624718 L12.2447907,17.1960993 C13.6799302,13.8442576 17.0100465,11.4943727 20.8873721,11.4943727 C22.8506744,11.4943727 24.672186,12.0974806 26.1826047,13.127236 C26.3440465,13.2604878 26.5133488,13.3843727 26.6886977,13.499495 C26.7264884,13.5291065 26.7654884,13.5575094 26.8026744,13.5877252 L26.8102326,13.5771496 C27.4841163,13.9962432 28.250814,14.2796676 29.0728372,14.3893511 C29.3231628,14.4225885 29.5783256,14.440718 29.8380233,14.440718 C31.6036047,14.440718 33.1826512,13.6430201 34.2356512,12.3896676 C34.9615349,11.525495 35.4373953,10.4446748 35.5513721,9.25779712 L35.0147442,8.51176835 Z" id="Fill-1" fill="#244D89"></path>
                    <path d="M33.4256605,4.17706619 C31.1772651,2.49162734 28.5784744,1.24552662 25.7568698,0.571109353 L24.8710558,0.463843165 L21.4747302,0.571109353 L19.947986,1.22074964 L16.8237535,2.46262014 L14.4332651,4.47348345 L13.048614,5.72713813 L11.888893,7.51319568 L10.7291721,9.3820446 L9.82975349,11.9685194 L9.47512558,13.8292101 L9.34452093,14.976505 L9.34452093,17.1290806 L9.47512558,18.607541 L9.99542791,20.9731381 L10.7409628,22.8655554 L11.3090326,24.0128504 L12.0427767,25.0537856 L12.6701023,25.9052676 L13.3427767,26.6150374 L13.5483581,26.7848504 L13.590986,26.8011669 C12.2782884,25.1861309 11.4910326,23.1275266 11.4910326,20.8855122 C11.4910326,20.6316993 11.501614,20.3803036 11.5212651,20.1313252 C11.6038,19.0967353 11.8538233,18.109282 12.2447302,17.1961597 C14.0898233,11.9651957 18.6343814,8.0069223 24.2071488,6.99438993 C25.1225907,6.82790072 26.0652419,6.74057698 27.0287535,6.74057698 C29.051614,6.74057698 30.9846837,7.12371367 32.7599395,7.82139712 C33.7431023,8.2075554 34.676986,8.69070647 35.5513116,9.25785755 C35.5688465,9.07535396 35.5785209,8.89043309 35.5785209,8.70309496 C35.5785209,6.88168489 34.7501488,5.22827482 33.4256605,4.17706619 L33.4256605,4.17706619 Z" id="Fill-3" fill="#3FC2F0"></path>
                    <path d="M24.6126279,0.331648921 C23.4069535,0.114397122 22.1656047,-0.000120863309 20.8973488,-0.000120863309 C15.9727674,-0.000120863309 11.4463488,1.70435396 7.87406977,4.55340432 C6.84827907,5.37164892 5.90109302,6.28386475 5.04611628,7.27766331 L4.93727907,7.43418129 L4.66669767,7.89708777 L4.36618605,8.4515482 L3.6944186,10.1460518 L3.26239535,11.6088 L2.98244186,13.7746705 L2.98244186,15.9490014 L3.30230233,18.5943971 L4.28606977,21.4398216 L5.87751163,23.9975914 L7.75676744,26.2356777 L9.90811628,27.9458935 L11.6195814,29.0088863 L14.1467209,30.064023 L16.9163256,30.575577 L18.6090465,30.6716633 L20.2485581,30.575577 L21.4001163,30.3758504 L21.8046279,30.232023 C21.502907,30.2610302 21.1969535,30.2767424 20.8873721,30.2767424 C18.9546047,30.2767424 17.158186,29.6929727 15.664093,28.6922245 C14.8819767,28.168282 14.1833023,27.5298216 13.5910465,26.801318 C12.7523953,25.8866849 12.0213721,24.8723396 11.4173256,23.7779223 C10.179907,21.5374187 9.47518605,18.9621237 9.47518605,16.2218504 C9.47518605,10.9280374 12.1033023,6.24790791 16.1263488,3.41275683 C18.6770698,1.61491511 21.7886047,0.558267626 25.1474419,0.558267626 L25.1474419,0.558267626 C25.3515116,0.558267626 25.5546744,0.563404317 25.7569302,0.571260432 C25.3793256,0.480915108 24.9977907,0.401145324 24.6126279,0.331648921" id="Fill-5" fill="#2C84BD"></path>
                    <path d="M26.6852512,28.6208547 L26.5008326,28.4863942 L26.0881581,28.8613727 L25.9892977,29.1124662 C26.1643442,28.9076029 26.3363674,28.7000201 26.5008326,28.4863942 C26.3620651,28.5652576 26.221786,28.6417036 26.0806,28.7163367 C24.756414,29.4170417 23.3197628,29.9337324 21.804507,30.2319626 C20.8192279,30.4259482 19.8012977,30.528682 18.7591814,30.528682 L18.7588791,30.528682 C16.7360186,30.528682 14.8029488,30.1452432 13.027693,29.4478619 C7.2070186,27.1611281 3.08662326,21.4938475 3.08662326,14.8650993 C3.08662326,12.1121353 3.79829767,9.52566043 5.04599535,7.27790504 C1.90150698,10.9331137 -0.000120930233,15.6875741 -0.000120930233,20.8856029 C-0.000120930233,23.3382216 0.424646512,25.6917324 1.20192558,27.8781496 L1.21553023,27.9062504 L1.24576279,27.966682 L1.34583256,28.1395165 L1.88941395,29.0230273 L3.63473953,30.8350705 L5.61285581,32.2920777 L7.78415814,33.4846964 L11.0114837,34.5195885 L13.9918093,34.8247683 L15.9678093,34.7005813 L17.8482744,34.3340633 L19.3435767,33.8998619 L21.7639953,32.8275022 L24.1414837,31.1898043 L25.4523674,30.1092863 L26.4240419,28.9900921 L26.6852512,28.6208547 Z" id="Fill-8" fill="#38589A"></path>
                    <path d="M32.1028349,37.2279237 L28.8486023,31.4449165 L27.0125791,28.1816072 C26.8438814,28.286154 26.6736721,28.3879813 26.5007419,28.4861827 C25.5369279,29.7380245 24.388393,30.8402978 23.0953465,31.7516072 C21.2759512,33.0339669 19.1717651,33.9386288 16.8955558,34.3522835 C15.9804163,34.5187727 15.0374628,34.6060964 14.0742535,34.6060964 C8.74213721,34.6060964 4.03281163,31.944082 1.20183488,27.8779381 C4.07997442,35.9730604 11.8116488,41.7711755 20.8971372,41.7711755 C25.2512302,41.7711755 29.2851605,40.4434921 32.6306953,38.165823 L32.1028349,37.2279237 Z" id="Fill-11" fill="#244D89"></path>
                    <path d="M38.7103721,29.0059252 C38.7103721,24.1438964 34.7668372,20.2025439 29.901814,20.2025439 C29.1659535,20.2025439 28.4509535,20.2931914 27.7673953,20.4633065 C25.3028372,21.0763856 23.2491395,22.7273784 22.0963721,24.9246734 C22.0969767,24.9246734 22.0975814,24.9249755 22.0978837,24.9252777 L23.5200233,24.9252777 L31.1637209,25.8435367 L32.2179302,28.2804432 L33.4039535,32.9067885 L31.1800465,37.3028892 L30.6506744,39.3908029 C32.9090465,38.2063424 34.9237442,36.620918 36.6007442,34.7294072 L36.5980233,34.725177 C37.9146512,33.1865871 38.7103721,31.1893209 38.7103721,29.0059252" id="Fill-13" fill="#3FC2F0"></path>
                    <path d="M26.1543977,23.8838892 C24.6832814,23.8838892 23.3007465,24.2618892 22.097793,24.9251266 C25.4055372,26.4035871 27.6170488,29.0891698 27.6170488,32.1572849 C27.6170488,35.3048676 25.2891419,38.0499755 21.8380953,39.501846 C20.1768163,40.2007381 18.2555372,40.6001914 16.207886,40.6001914 C15.2023512,40.6001914 14.2273512,40.5035007 13.2983047,40.3228101 C15.6694442,41.2570835 18.2519093,41.7713568 20.9550023,41.7713568 C23.6402581,41.7713568 26.2063977,41.2637309 28.5645372,40.3415439 C29.2798395,40.0617453 29.9763977,39.7447813 30.650886,39.390954 C33.0023744,37.9007094 34.5632814,35.2767669 34.5632814,32.2881194 C34.5632814,27.6466662 30.7984209,23.8838892 26.1543977,23.8838892" id="Fill-15" fill="#2C84BD"></path>
                </g>
            </g>
        </g>
    </g>
</svg>