<?xml version="1.0" encoding="UTF-8"?>
<svg width="339px" height="346px" viewBox="0 0 339 346" version="1.1" xmlns="http://www.w3.org/2000/svg" xmlns:xlink="http://www.w3.org/1999/xlink">
    <!-- Generator: Sketch 46.2 (44496) - http://www.bohemiancoding.com/sketch -->
    <title>Group 10 Copy</title>
    <desc>Created with Sketch.</desc>
    <defs>
        <linearGradient x1="0%" y1="0%" x2="101.999998%" y2="100.999999%" id="linearGradient-1">
            <stop stop-color="#EF14C5" offset="0%"></stop>
            <stop stop-color="#FFC160" offset="100%"></stop>
        </linearGradient>
        <linearGradient x1="0%" y1="0%" x2="101.999998%" y2="100.999999%" id="linearGradient-2">
            <stop stop-color="#2B0096" offset="0%"></stop>
            <stop stop-color="#E9649B" offset="100%"></stop>
        </linearGradient>
        <linearGradient x1="50%" y1="6.437273%" x2="0%" y2="58.417354%" id="linearGradient-3">
            <stop stop-color="#9733CD" offset="0%"></stop>
            <stop stop-color="#2E5B93" offset="100%"></stop>
        </linearGradient>
    </defs>
    <g id="Page-1" stroke="none" stroke-width="1" fill="none" fill-rule="evenodd">
        <g id="Group-10-Copy">
            <ellipse id="Oval-17" fill="url(#linearGradient-1)" cx="182.249995" cy="170.549995" rx="137.249996" ry="136.349996"></ellipse>
            <path d="M100.107246,35.0999991 C53.1436716,62.4172067 21.5999994,113.081904 21.5999994,171.068953 C21.5999994,258.015715 92.5180932,328.499991 179.999995,328.499991 C267.481897,328.499991 338.399991,258.015715 338.399991,171.068953 C338.399991,151.95611 334.973096,133.638764 328.696669,116.690749 L175.993986,175.049472 L100.107246,35.0999991 Z" id="Combined-Shape" fill="url(#linearGradient-2)"></path>
            <path d="M176.252673,0.0260577371 C175.241813,0.00870952117 174.228843,0 173.213833,0 C77.5504748,0 0,77.3651932 0,172.799995 C0,268.234798 77.5504748,345.599991 173.213833,345.599991 C211.432078,345.599991 246.759391,333.252013 275.405796,312.336979 L176.252673,175.831574 L176.252673,0.0260577371 Z" id="Combined-Shape" fill="url(#linearGradient-3)"></path>
            <text id="60%" font-family="AvenirNextRoundedPro-Demi, Avenir Next Rounded Pro" font-size="19.7999995" font-weight="500" letter-spacing="0.949981438" fill="#FFFFFF">
                <tspan x="166.499996" y="294.399993">60%</tspan>
            </text>
            <text id="20%" font-family="AvenirNextRoundedPro-Demi, Avenir Next Rounded Pro" font-size="19.7999995" font-weight="500" letter-spacing="0.949981438" fill="#FFFFFF">
                <tspan x="251.099993" y="205.999995">20%</tspan>
            </text>
            <text id="20%" font-family="AvenirNextRoundedPro-Demi, Avenir Next Rounded Pro" font-size="19.7999995" font-weight="500" letter-spacing="0.949981438" fill="#FFFFFF">
                <tspan x="200.699995" y="99.0999979">20%</tspan>
            </text>
        </g>
    </g>
</svg>