<?xml version="1.0" encoding="UTF-8"?>
<svg width="244px" height="244px" viewBox="0 0 244 244" version="1.1" xmlns="http://www.w3.org/2000/svg" xmlns:xlink="http://www.w3.org/1999/xlink">
    <!-- Generator: Sketch 46.2 (44496) - http://www.bohemiancoding.com/sketch -->
    <title>Group 31</title>
    <desc>Created with Sketch.</desc>
    <defs>
        <circle id="path-1" cx="108" cy="108" r="108"></circle>
        <filter x="-10.2%" y="-9.3%" width="120.4%" height="120.4%" filterUnits="objectBoundingBox" id="filter-3">
            <feOffset dx="0" dy="2" in="SourceAlpha" result="shadowOffsetOuter1"></feOffset>
            <feGaussianBlur stdDeviation="7" in="shadowOffsetOuter1" result="shadowBlurOuter1"></feGaussianBlur>
            <feColorMatrix values="0 0 0 0 0   0 0 0 0 0   0 0 0 0 0  0 0 0 0.1 0" type="matrix" in="shadowBlurOuter1"></feColorMatrix>
        </filter>
        <linearGradient x1="0%" y1="0%" x2="101.999998%" y2="100.999999%" id="linearGradient-4">
            <stop stop-color="#00B8DA" offset="0%"></stop>
            <stop stop-color="#55CAE5" offset="100%"></stop>
        </linearGradient>
        <circle id="path-5" cx="109" cy="109" r="87"></circle>
        <filter x="-34.6%" y="-27.4%" width="167.9%" height="163.1%" filterUnits="objectBoundingBox" id="filter-7">
            <feOffset dx="0" dy="4" in="SourceAlpha" result="shadowOffsetOuter1"></feOffset>
            <feGaussianBlur stdDeviation="8" in="shadowOffsetOuter1" result="shadowBlurOuter1"></feGaussianBlur>
            <feColorMatrix values="0 0 0 0 0   0 0 0 0 0   0 0 0 0 0  0 0 0 0.1 0" type="matrix" in="shadowBlurOuter1" result="shadowMatrixOuter1"></feColorMatrix>
            <feMerge>
                <feMergeNode in="shadowMatrixOuter1"></feMergeNode>
                <feMergeNode in="SourceGraphic"></feMergeNode>
            </feMerge>
        </filter>
    </defs>
    <g id="Page-1" stroke="none" stroke-width="1" fill="none" fill-rule="evenodd">
        <g id="Home" transform="translate(-599.000000, -3613.000000)">
            <g id="Group-31" transform="translate(613.000000, 3625.000000)">
                <mask id="mask-2" fill="white">
                    <use xlink:href="#path-1"></use>
                </mask>
                <g id="Oval-5">
                    <use fill="black" fill-opacity="1" filter="url(#filter-3)" xlink:href="#path-1"></use>
                    <use fill="#46D6D4" fill-rule="evenodd" xlink:href="#path-1"></use>
                </g>
                <circle id="Oval-3" fill-opacity="0.150000006" fill="#FFFFFF" mask="url(#mask-2)" cx="281" cy="56" r="199"></circle>
                <mask id="mask-6" fill="white">
                    <use xlink:href="#path-5"></use>
                </mask>
                <g id="Oval-5-Copy">
                    <use fill="url(#linearGradient-4)" fill-rule="evenodd" xlink:href="#path-5"></use>
                    <circle stroke-opacity="0.05" stroke="#000000" stroke-width="3" cx="109" cy="109" r="85.5"></circle>
                </g>
                <circle id="Oval-3" fill-opacity="0.150000006" fill="#FFFFFF" mask="url(#mask-6)" cx="283" cy="54" r="199"></circle>
                <g id="logo" filter="url(#filter-7)" mask="url(#mask-6)">
                    <g transform="translate(71.000000, 67.000000)">
                        <path d="M70.0294884,17.0235367 L66.8659535,15.0625295 L61.0540465,13.4810331 L54.4573023,12.8815511 L50.4103721,13.1752489 L45.0398605,13.9596518 L39.6445581,16.4107597 L35.9906512,18.788141 L32.3125581,21.5335511 L29.8353023,24.3520835 L27.9469767,27.0479396 L26.5490233,29.4748748 L24.7344651,33.249436 L24.4895814,34.3921986 C27.3598605,27.6885151 34.020093,22.9887453 41.7747442,22.9887453 C45.7013488,22.9887453 49.3443721,24.1949612 52.3652093,26.2544719 C52.688093,26.5209755 53.0266977,26.7687453 53.3773953,26.9989899 C53.4529767,27.0582129 53.5309767,27.1150187 53.6053488,27.1754504 L53.6204651,27.1542993 C54.9682326,27.9924863 56.5016279,28.5593353 58.1456744,28.7787022 C58.6463256,28.845177 59.1566512,28.881436 59.6760465,28.881436 C63.2072093,28.881436 66.3653023,27.2860403 68.4713023,24.7793353 C69.9230698,23.0509899 70.8747907,20.8893496 71.1027442,18.5155942 L70.0294884,17.0235367 Z" id="Fill-1" fill="#FFFFFF"></path>
                        <path d="M66.8513209,8.35413237 C62.3545302,4.98325468 57.1569488,2.49105324 51.5137395,1.14221871 L49.7421116,0.927686331 L42.9494605,1.14221871 L39.8959721,2.44149928 L33.647507,4.92524029 L28.8665302,8.94696691 L26.0972279,11.4542763 L23.777786,15.0263914 L21.4583442,18.7640892 L19.659507,23.9370388 L18.9502512,27.6584201 L18.6890419,29.9530101 L18.6890419,34.2581612 L18.9502512,37.215082 L19.9908558,41.9462763 L21.4819256,45.7311108 L22.6180651,48.0257007 L24.0855535,50.1075712 L25.3402047,51.8105353 L26.6855535,53.2300748 L27.0967163,53.5697007 L27.1819721,53.6023338 C24.5565767,50.3722619 22.9820651,46.2550532 22.9820651,41.7710245 C22.9820651,41.2633986 23.0032279,40.7606072 23.0425302,40.2626504 C23.2076,38.1934705 23.7076465,36.218564 24.4894605,34.3923194 C28.1796465,23.9303914 37.2687628,16.0138446 48.4142977,13.9887799 C50.2451814,13.6558014 52.1304837,13.481154 54.057507,13.481154 C58.1032279,13.481154 61.9693674,14.2474273 65.5198791,15.6427942 C67.4862047,16.4151108 69.3539721,17.3814129 71.1026233,18.5157151 C71.137693,18.1507079 71.1570419,17.7808662 71.1570419,17.4061899 C71.1570419,13.7633698 69.5002977,10.4565496 66.8513209,8.35413237 L66.8513209,8.35413237 Z" id="Fill-3" fill="#FFFFFF"></path>
                        <path d="M49.2252558,0.663297842 C46.813907,0.228794245 44.3312093,-0.000241726619 41.7946977,-0.000241726619 C31.9455349,-0.000241726619 22.8926977,3.40870791 15.7481395,9.10680863 C13.6965581,10.7432978 11.802186,12.5677295 10.0922326,14.5553266 L9.87455814,14.8683626 L9.33339535,15.7941755 L8.73237209,16.9030964 L7.38883721,20.2921036 L6.5247907,23.2176 L5.96488372,27.549341 L5.96488372,31.8980029 L6.60460465,37.1887942 L8.57213953,42.8796432 L11.7550233,47.9951827 L15.5135349,52.4713554 L19.8162326,55.8917871 L23.2391628,58.0177727 L28.2934419,60.128046 L33.8326512,61.151154 L37.218093,61.3433266 L40.4971163,61.151154 L42.8002326,60.7517007 L43.6092558,60.464046 C43.005814,60.5220604 42.393907,60.5534849 41.7747442,60.5534849 C37.9092093,60.5534849 34.3163721,59.3859453 31.328186,57.3844489 C29.7639535,56.336564 28.3666047,55.0596432 27.182093,53.602636 C25.5047907,51.7733698 24.0427442,49.7446791 22.8346512,47.5558446 C20.359814,43.0748374 18.9503721,37.9242475 18.9503721,32.4437007 C18.9503721,21.8560748 24.2066047,12.4958158 32.2526977,6.82551367 C37.3541395,3.22983022 43.5772093,1.11653525 50.2948837,1.11653525 L50.2948837,1.11653525 C50.7030233,1.11653525 51.1093488,1.12680863 51.5138605,1.14252086 C50.7586512,0.961830216 49.9955814,0.802290647 49.2252558,0.663297842" id="Fill-5" fill="#FFFFFF"></path>
                        <path d="M53.3705023,57.2417094 L53.0016651,56.9727885 L52.1763163,57.7227453 L51.9785953,58.2249324 C52.3286884,57.8152058 52.6727349,57.4000403 53.0016651,56.9727885 C52.7241302,57.1305151 52.4435721,57.2834072 52.1612,57.4326734 C49.5128279,58.8340835 46.6395256,59.8674647 43.609014,60.4639252 C41.6384558,60.8518964 39.6025953,61.057364 37.5183628,61.057364 L37.5177581,61.057364 C33.4720372,61.057364 29.6058977,60.2904863 26.055386,58.8957237 C14.4140372,54.3222561 6.17324651,42.987695 6.17324651,29.7301986 C6.17324651,24.2242705 7.59659535,19.0513209 10.0919907,14.5558101 C3.80301395,21.8662273 -0.000241860465,31.3751482 -0.000241860465,41.7712058 C-0.000241860465,46.6764432 0.849293023,51.3834647 2.40385116,55.7562993 L2.43106047,55.8125007 L2.49152558,55.933364 L2.69166512,56.2790331 L3.77882791,58.0460547 L7.26947907,61.670141 L11.2257116,64.5841554 L15.5683163,66.9693928 L22.0229674,69.039177 L27.9836186,69.6495367 L31.9356186,69.4011626 L35.6965488,68.6681266 L38.6871535,67.7997237 L43.5279907,65.6550043 L48.2829674,62.3796086 L50.9047349,60.2185727 L52.8480837,57.9801842 L53.3705023,57.2417094 Z" id="Fill-8" fill="#FFFFFF"></path>
                        <path d="M64.2056698,74.4558475 L57.6972047,62.8898331 L54.0251581,56.3632144 C53.6877628,56.5723079 53.3473442,56.7759626 53.0014837,56.9723655 C51.0738558,59.4760489 48.776786,61.6805957 46.190693,63.5032144 C42.5519023,66.0679338 38.3435302,67.8772576 33.7911116,68.7045669 C31.9608326,69.0375453 30.0749256,69.2121928 28.148507,69.2121928 C17.4842744,69.2121928 8.06562326,63.888164 2.40366977,55.7558763 C8.15994884,71.9461209 23.6232977,83.5423511 41.7942744,83.5423511 C50.5024605,83.5423511 58.5703209,80.8869842 65.2613907,76.331646 L64.2056698,74.4558475 Z" id="Fill-11" fill="#FFFFFF"></path>
                        <path d="M77.4207442,58.0118504 C77.4207442,48.2877928 69.5336744,40.4050878 59.8036279,40.4050878 C58.331907,40.4050878 56.901907,40.5863827 55.5347907,40.9266129 C50.6056744,42.1527712 46.4982791,45.4547568 44.1927442,49.8493468 C44.1939535,49.8493468 44.1951628,49.8499511 44.1957674,49.8505554 L47.0400465,49.8505554 L62.3274419,51.6870734 L64.4358605,56.5608863 L66.807907,65.813577 L62.360093,74.6057784 L61.3013488,78.7816058 C65.818093,76.4126849 69.8474884,73.241836 73.2014884,69.4588144 L73.1960465,69.450354 C75.8293023,66.3731741 77.4207442,62.3786417 77.4207442,58.0118504" id="Fill-13" fill="#DCEEEF"></path>
                        <path d="M52.3087953,47.7677784 C49.3665628,47.7677784 46.601493,48.5237784 44.195586,49.8502532 C50.8110744,52.8071741 55.2340977,58.1783396 55.2340977,64.3145698 C55.2340977,70.6097353 50.5782837,76.0999511 43.6761907,79.0036921 C40.3536326,80.4014763 36.5110744,81.2003827 32.4157721,81.2003827 C30.4047023,81.2003827 28.4547023,81.0070014 26.5966093,80.6456201 C31.3388884,82.5141669 36.5038186,83.5427137 41.9100047,83.5427137 C47.2805163,83.5427137 52.4127953,82.5274619 57.1290744,80.6830878 C58.5596791,80.1234906 59.9527953,79.4895626 61.3017721,78.7819079 C66.0047488,75.8014187 69.1265628,70.5535338 69.1265628,64.5762388 C69.1265628,55.2933324 61.5968419,47.7677784 52.3087953,47.7677784" id="Fill-15" fill="#DCEEEF"></path>
                    </g>
                </g>
            </g>
        </g>
    </g>
</svg>